<svg width="100" height="100" viewBox="0 0 100 100" fill="none" xmlns="http://www.w3.org/2000/svg">
<g clip-path="url(#clip0_220_2)">
<circle cx="50" cy="50" r="50" fill="white"/>
<mask id="mask0_220_2" style="mask-type:alpha" maskUnits="userSpaceOnUse" x="0" y="0" width="100" height="100">
<rect width="100" height="100" fill="#D9D9D9"/>
</mask>
<g mask="url(#mask0_220_2)">
<path d="M50.0033 94.1667C43.9554 94.1667 38.245 92.9854 32.872 90.6229C27.4991 88.2604 22.8231 85.0906 18.8439 81.1135C14.8654 77.1365 11.7022 72.4681 9.35433 67.1083C7.00711 61.7493 5.8335 56.0465 5.8335 50C5.8335 43.9542 7.02238 38.241 9.40016 32.8604C11.7772 27.4799 14.945 22.8108 18.9033 18.8531C22.8616 14.8955 27.5231 11.7187 32.8877 9.32292C38.2522 6.92708 43.9602 5.72917 50.0116 5.72917C56.063 5.72917 61.7759 6.93541 67.1502 9.34791C72.5238 11.7597 77.1894 14.9448 81.147 18.9031C85.1047 22.8615 88.2814 27.5229 90.6772 32.8875C93.0731 38.2521 94.271 43.9601 94.271 50.0115C94.271 56.0628 93.0647 61.7757 90.6522 67.15C88.2404 72.5236 85.0554 77.1892 81.097 81.1469C77.1387 85.1045 72.4786 88.2639 67.1168 90.625C61.7557 92.9861 56.0512 94.1667 50.0033 94.1667ZM47.5002 84.4792L45.8335 82.6042C45.4168 82.1875 45.1189 81.709 44.9397 81.1687C44.7613 80.6285 44.672 80 44.672 79.2833V55.1625C42.0922 54.8847 39.9568 53.8302 38.2658 51.999C36.5748 50.1677 35.7293 48.0292 35.7293 45.5833V41.6083L22.9168 28.5417C20.4911 31.5292 18.6172 34.8337 17.295 38.4552C15.9734 42.076 15.3127 45.9156 15.3127 49.974C15.3127 59.2108 18.4165 67.1146 24.6241 73.6854C30.8325 80.2562 38.4578 83.8542 47.5002 84.4792ZM55.3127 84.2708C63.6356 82.8701 70.612 78.9566 76.2418 72.5302C81.8724 66.1045 84.6877 58.5774 84.6877 49.949C84.6877 40.3656 81.32 32.1969 74.5845 25.4427C67.8498 18.6892 59.6484 15.3125 49.9804 15.3125C46.9005 15.3125 43.9498 15.7076 41.1283 16.4979C38.3075 17.2889 35.6397 18.3816 33.1252 19.776V26.875H48.0429C49.5318 26.875 50.9592 27.2049 52.3252 27.8646C53.6918 28.5243 54.8266 29.4097 55.7293 30.5208L61.6939 37.8938H67.9064C69.3647 37.8938 70.5991 38.4233 71.6095 39.4823C72.62 40.5413 73.1252 41.7965 73.1252 43.2479V47.9927C73.1252 48.6997 73.0384 49.4365 72.8647 50.2031C72.6911 50.9705 72.4262 51.6392 72.07 52.2094L55.3127 76.975V84.2708Z" fill="#1E00FF"/>
</g>
</g>
<defs>
<clipPath id="clip0_220_2">
<rect width="100" height="100" fill="white"/>
</clipPath>
</defs>
</svg>
